# xmcd CD database file
#
# Track frame offsets:
#	150
#	21072
#	38085
#	56985
#	75945
#	102555
#	117632
#	136030
#	153718
#	173306
#	190233
#	208288
#	227115
#	246012
#	265607
#	283840
#	301965
#	318772
#
# Disc length: 4583 seconds
#
# Revision: 0
# Processed by: cddbd v1.5.1PL2 Copyright (c) Steve Scherf et al.
# Submitted via: freeDB plugin v1.0
#
DISCID=f311e512
DTITLE=Ｂ’ｚ - Ｂ’ｚ　ＳＩＮＧＬＥＳ　Ｖｏｌ．２
DYEAR=1900
DGENRE=Rock
TTITLE0=１９＿１　ミエナイチカラ　〜ＩＮＶＩＳＩＢＬＥ　ＯＮＥ〜
TTITLE1=１９＿２　ＭＯＶＥ　（ミエナイチカラ　Ｃ／Ｗ）
TTITLE2=２０　Ｒｅａｌ　Ｔｈｉｎｇ　Ｓｈａｋｅｓ
TTITLE3=２１　ＦＩＲＥＢＡＬＬ
TTITLE4=２２　Ｃａｌｌｉｎｇ
TTITLE5=２３　Ｌｉａｒ！　Ｌｉａｒ！
TTITLE6=２４＿１　さまよえる蒼い弾丸
TTITLE7=２４＿２　Ｈｉ　（さまよえる蒼い弾丸　Ｃ／Ｗ）
TTITLE8=２５＿１　ＨＯＭＥ
TTITLE9=２５＿２　Ｔｈｅ　Ｗｉｌｄ　Ｗｉｎｄ　（ＨＯＭＥ　Ｃ／Ｗ）
TTITLE10=２６＿１　ギリギリｃｈｏｐ
TTITLE11=２６＿２　ＯＮＥ　（ギリギリｃｈｏｐ　Ｃ／Ｗ）
TTITLE12=２７　今夜月の見える丘に
TTITLE13=２８　Ｍａｙ
TTITLE14=２９　ｊｕｉｃｅ
TTITLE15=３０　ＲＩＮＧ
TTITLE16=３１　ｕｌｔｒａ　ｓｏｕｌ
TTITLE17=３２　ＧＯＬＤ
EXTD=
EXTT0=
EXTT1=
EXTT2=
EXTT3=
EXTT4=
EXTT5=
EXTT6=
EXTT7=
EXTT8=
EXTT9=
EXTT10=
EXTT11=
EXTT12=
EXTT13=
EXTT14=
EXTT15=
EXTT16=
EXTT17=
PLAYORDER=
